<svg xmlns="http://www.w3.org/2000/svg" id="edit" fill="none" data-category="ui" viewBox="0 0 32 32">
  <g fill="var(--fg-color, #2A2859)">
    <path fill-rule="evenodd" d="M31.283 6.256 25.639.611 9.176 17.073l-1.96 7.585 7.586-1.958 1.164-1.165 11.205-11.17.002.001.868-.868.546-.545zm-5.645-2.818 2.816 2.817-1.282 1.282-2.816-2.816zM12.655 16.42l2.8 2.8L25.757 8.95l-2.815-2.816zm-1.414 1.414 2.799 2.798-.267.267-3.773.974.975-3.773z" clip-rule="evenodd"/>
    <path d="M13.5 4.024v-2H.017V30h31.98l-.007-12.09h-2L29.994 28H2.015V4.024h11.486Z"/>
  </g>
</svg>
