<svg xmlns="http://www.w3.org/2000/svg" id="trash" fill="none" data-category="activities" viewBox="0 0 32 32">
  <g fill="var(--fg-color, #2A2859)">
    <path d="M9.998 5.25a2.5 2.5 0 1 0 0-5 2.5 2.5 0 0 0 0 5M6.078 7 5.002 19.917l1.993.166.005-.061V32h2V19h2v13h2V19h1.918l-.726-8.719 4.957 5.469 1.482-1.344-6.713-7.404L13 7zm1.174 10 .666-8h4.16l.667 8z"/>
    <path d="M27.563 18.994 25.502 19l-1.261 11.003h-4.448l-1.262-11.009-2.06.009L18.009 32h6.332v-.009h1.684z"/>
    <path d="M21 21a1 1 0 1 0 0-2 1 1 0 0 0 0 2m3 1h-2v2h2zm-1 5h-2v2h2z"/>
  </g>
</svg>
